<?xml version="1.0" encoding="UTF-8"?>
<svg xmlns="http://www.w3.org/2000/svg" viewBox="0 0 800 600">
  <path fill="#FFA500" d="M100.4 452.5c-.6-1.8-.4-3.8.7-5.4 2.2-3.2 6.6-4 9.8-1.8 1.6 1.1 2.6 2.8 2.8 4.7.4 3.8-2.4 7.2-6.2 7.6-3.8.4-7.2-2.4-7.6-6.2-.1-.9 0-1.9.2-2.8M705.9 147.5c-1.8-.6-3.8-.4-5.4.7-3.2 2.2-4 6.6-1.8 9.8 1.1 1.6 2.8 2.6 4.7 2.8 3.8.4 7.2-2.4 7.6-6.2.4-3.8-2.4-7.2-6.2-7.6-.9-.1-1.9 0-2.8.2"/>
  <path fill="#FFA500" d="M246.8 308.5c-35.7-24.8-72.7-47.7-111.7-68.3-19.5-10.3-39.4-20-59.6-29-10.1-4.5-20.3-8.8-30.6-12.9-5.2-2.1-10.4-4.1-15.6-6.1-2.6-1-5.2-2-7.8-2.9-1.3-.5-2.6-.9-4-1.4-.7-.2-1.4-.5-2.1-.7-.4-.1-.7-.2-1.1-.4-.2-.1-.4-.1-.6-.2-.1 0-.2-.1-.3-.1h-.2c-.1 0-.1 0-.2-.1h-.1c0-.1.1-.1.1-.2.1-.1.1-.2.2-.3.1-.2.3-.4.4-.6.3-.4.6-.8.9-1.2.6-.8 1.3-1.6 2-2.4 1.4-1.6 2.8-3.1 4.3-4.6 3-3 6.1-5.9 9.3-8.7 6.4-5.6 13.1-10.8 20-15.7 13.8-9.8 28.3-18.6 43.2-26.4 29.8-15.6 61.1-27.9 93.3-36.8 32.2-8.9 65.3-14.4 98.6-16.3 33.3-1.9 66.8-.2 99.7 5 32.9 5.2 65.2 13.9 96.2 25.8 31 11.9 60.8 27 88.7 44.9 27.9 17.9 54 38.6 77.7 61.7 23.7 23.1 45.1 48.5 63.8 75.8 18.7 27.3 34.8 56.4 47.8 86.9 13 30.5 23 62.3 29.7 94.9 6.7 32.6 10.1 65.9 10.1 99.2 0 33.3-3.4 66.6-10.1 99.2-6.7 32.6-16.7 64.4-29.7 94.9-13 30.5-29.1 59.6-47.8 86.9-18.7 27.3-40.1 52.7-63.8 75.8-23.7 23.1-49.8 43.8-77.7 61.7-27.9 17.9-57.7 33-88.7 44.9-31 11.9-63.3 20.6-96.2 25.8-32.9 5.2-66.4 6.9-99.7 5-33.3-1.9-66.4-7.4-98.6-16.3-32.2-8.9-63.5-21.2-93.3-36.8-14.9-7.8-29.4-16.6-43.2-26.4-6.9-4.9-13.6-10.1-20-15.7-3.2-2.8-6.3-5.7-9.3-8.7-1.5-1.5-2.9-3-4.3-4.6-.7-.8-1.4-1.6-2-2.4-.3-.4-.6-.8-.9-1.2-.1-.2-.3-.4-.4-.6-.1-.1-.1-.2-.2-.3 0-.1-.1-.1-.1-.2h.1c.1 0 .1 0 .2-.1h.2c.1 0 .2-.1.3-.1.2-.1.4-.1.6-.2.4-.1.7-.2 1.1-.4.7-.2 1.4-.5 2.1-.7 1.4-.5 2.7-.9 4-1.4 2.6-.9 5.2-1.9 7.8-2.9 5.2-2 10.4-4 15.6-6.1 10.3-4.1 20.5-8.4 30.6-12.9 20.2-9 40.1-18.7 59.6-29 39-20.6 76-43.5 111.7-68.3"/>
</svg>
